<?xml version="1.0" encoding="utf-8"?>
<!-- Generator: Adobe Illustrator 16.0.0, SVG Export Plug-In . SVG Version: 6.00 Build 0)  -->
<!DOCTYPE svg PUBLIC "-//W3C//DTD SVG 1.1//EN" "http://www.w3.org/Graphics/SVG/1.1/DTD/svg11.dtd">
<svg version="1.1" id="Layer_1" xmlns="http://www.w3.org/2000/svg" xmlns:xlink="http://www.w3.org/1999/xlink" x="0px" y="0px"
	 width="202.128px" height="164.681px" viewBox="0 0 202.128 164.681" enable-background="new 0 0 202.128 164.681"
	 xml:space="preserve">
<g>
	<g>
		<g>
			<polygon fill="#B3B3B3" points="71.633,97.149 107.171,81.411 64.812,82.922 15.934,97.204 			"/>
			<polygon fill="#CCCCCC" points="72.182,100.786 107.522,83.94 107.181,81.409 71.641,97.149 			"/>
			<polygon fill="#E6E6E6" points="16.262,99.633 72.227,100.779 71.674,97.145 15.933,97.204 			"/>
			<path fill="#E6E6E6" d="M14.848,95.269c0.15,1.111,1.18,1.889,2.297,1.738L61.964,83.97c1.117-0.153,1.9-1.175,1.75-2.286
				l-9.93-34.513c-0.15-1.111-1.178-1.889-2.297-1.738L4.57,42.978c-1.118,0.15-1.902,1.174-1.752,2.285L14.848,95.269z"/>
			<path d="M15.555,95.159c0.15,1.119,1.18,1.902,2.297,1.752l44.815-13.079c1.117-0.151,1.9-1.181,1.748-2.299l-9.958-34.723
				c-0.151-1.118-1.181-1.901-2.298-1.751L5.234,42.552c-1.119,0.152-1.902,1.181-1.75,2.299L15.555,95.159z"/>
			<polygon fill="#333333" points="59.841,80.401 50.858,49.082 8.152,46.8 19.068,92.3 			"/>
			<polygon fill="#E6E6E6" points="83.732,85.901 71.733,91.224 79.806,91.429 91.805,86.108 			"/>
			<polygon fill="#4D4D4D" points="65.711,83.868 28.299,96.424 57.289,95.822 90.722,82.004 			"/>
		</g>
		<circle fill="#1A1A1A" cx="30.897" cy="45.981" r="0.715"/>
	</g>
</g>
<path fill="#60A32B" d="M117.188,159.223c5.032-1.488,3.003-19.354,3.003-19.354s37.816-32.23,17.384-41.934
	c-20.431-9.702-37.006,26.483-36.171,39.5C101.683,141.856,110.786,159.351,117.188,159.223"/>
<path fill="#60A32B" d="M67.51,81.135c2.15,1.987,14.447-1.368,14.447-1.368s31.156,12.031,33.653,1.78
	c2.497-10.25-26.885-12.474-35.983-10.309C76.535,71.972,66.033,78.36,67.51,81.135"/>
<path fill="#7AC943" d="M199.1,72.312c-2.044-1.652-9.048,23.115-30.046,23.375c-3.782,0.047-12.313-6.021-20.357-14.92
	c-8.046-8.898-21.285-10.549-23.732-25.159c-2.443-14.608-1.274-30.212-1.274-30.212l-10.247-1.386
	c-4.845,22.038-18.491,31.197-14.906,65.874c3.583,34.68,31.711,50.844,61.902,44.504C190.627,128.048,201.148,73.964,199.1,72.312z
	"/>
<path fill="#98EF54" d="M160.182,129.442c-30.272,7.15-54.615-8.966-56.819-43.297c-1.988-30.975,4.128-44.928,9.734-58.738
	l-1.494-0.402c-4.23,21.873-18.036,31.734-13.385,65.818c4.652,34.086,33.519,49.189,63.794,42.039
	c19.954-4.713,30.698-35.312,34.655-46.994C188.688,107.731,176.455,125.601,160.182,129.442z"/>
<path fill="#7AC943" d="M67.468,89.321c1.649,2.939,15.472,1.914,15.472,1.914s35.373,21.324,38.843,7.55
	c7.739-30.729-33.199-22.191-41.875-20.342C76.96,79.07,66.562,85.397,67.468,89.321"/>
<g>
	<path fill="#7AC943" d="M123.689,23.309c0.143,11.499-8.964,20.933-20.34,21.073s-25.996-3.678-26.139-15.175
		c-0.07-5.666,3.42-9.908,8.324-13.726c5.048-3.923,11.531-12.66,17.3-12.731C114.211,2.608,123.548,11.813,123.689,23.309z"/>
	<path fill="#7AC943" d="M100.22,9.912"/>
	<g>
		<path fill="#FFFFFF" d="M105.107,6.313"/>
		<path fill="#FFFFFF" d="M105.14,4.147"/>
	</g>
</g>
<path fill="#7AC943" d="M165.504,160.748c2.445-4.139-8.889-19.44-8.889-19.44s0.698-57.238-18.913-50.875
	c-43.754,14.189-3.359,55.36,5.251,64.056C145.878,157.445,161.299,164.763,165.504,160.748"/>
</svg>
