<?xml version="1.0" encoding="utf-8"?>
<!-- Generator: Adobe Illustrator 16.0.0, SVG Export Plug-In . SVG Version: 6.00 Build 0)  -->
<!DOCTYPE svg PUBLIC "-//W3C//DTD SVG 1.1//EN" "http://www.w3.org/Graphics/SVG/1.1/DTD/svg11.dtd">
<svg version="1.1" id="Layer_1" xmlns="http://www.w3.org/2000/svg" xmlns:xlink="http://www.w3.org/1999/xlink" x="0px" y="0px"
	 width="177.447px" height="155.319px" viewBox="0 0 177.447 155.319" enable-background="new 0 0 177.447 155.319"
	 xml:space="preserve">
<g>
	<g>
		<g>
			<polygon fill="#B3B3B3" points="114.167,91.043 82.545,77.041 120.236,78.384 163.725,91.092 			"/>
			<polygon fill="#CCCCCC" points="113.678,94.279 82.233,79.291 82.538,77.039 114.16,91.043 			"/>
			<polygon fill="#E6E6E6" points="163.433,93.253 113.638,94.273 114.129,91.039 163.726,91.092 			"/>
			<path fill="#E6E6E6" d="M164.692,89.371c-0.134,0.988-1.05,1.68-2.044,1.546l-39.879-11.6c-0.994-0.137-1.69-1.046-1.557-2.034
				l8.835-30.708c0.134-0.989,1.048-1.681,2.044-1.546l41.744-2.186c0.995,0.135,1.693,1.045,1.56,2.033L164.692,89.371z"/>
			<path d="M164.062,89.273c-0.134,0.996-1.049,1.692-2.043,1.559l-39.875-11.637c-0.994-0.135-1.691-1.051-1.556-2.046l8.86-30.896
				c0.135-0.994,1.051-1.691,2.044-1.557l41.752-2.231c0.996,0.134,1.693,1.05,1.558,2.045L164.062,89.273z"/>
			<polygon fill="#333333" points="124.659,76.142 132.651,48.275 170.649,46.245 160.936,86.728 			"/>
			<polygon fill="#E6E6E6" points="103.401,81.036 114.077,85.771 106.894,85.954 96.218,81.22 			"/>
			<polygon fill="#4D4D4D" points="119.435,79.226 152.723,90.398 126.929,89.863 97.182,77.568 			"/>
		</g>
		<circle fill="#1A1A1A" cx="150.411" cy="45.517" r="0.637"/>
	</g>
</g>
<path fill="#8E5770" d="M75.72,149.996c-4.485-1.408-2.676-18.311-2.676-18.311s-33.707-30.496-15.495-39.678
	c18.212-9.179,32.984,25.059,32.239,37.374C89.542,133.564,81.427,150.117,75.72,149.996"/>
<path fill="#8E5770" d="M118.862,75.23c-2.46,2.233-15.158-2.845-15.158-2.845s-34.069,12.031-35.763-0.603
	c-1.693-12.63,29.595-12.913,39.019-9.544C110.163,63.381,120.68,71.987,118.862,75.23"/>
<path fill="#E2A6BF" d="M2.71,67.763c1.821-1.562,8.065,21.871,26.781,22.117c3.372,0.044,10.976-5.697,18.146-14.116
	c7.172-8.419,18.972-9.981,21.153-23.805c2.178-13.823,1.135-28.585,1.135-28.585l9.134-1.312
	c4.318,20.851,16.481,29.518,13.287,62.327c-3.193,32.812-28.266,48.105-55.176,42.107C10.262,120.5,0.884,69.328,2.71,67.763z"/>
<path fill="#9E6994" d="M37.4,121.819c26.982,6.765,48.679-8.483,50.646-40.966c1.771-29.307-3.68-42.51-8.678-55.576l1.333-0.381
	c3.77,20.695,16.075,30.026,11.93,62.275c-4.146,32.25-29.877,46.541-56.862,39.775c-17.786-4.459-27.363-33.41-30.891-44.464
	C11.99,101.277,22.894,118.184,37.4,121.819z"/>
<path fill="#E2A6BF" d="M121.013,88.708c-1.621,2.598-12.806-0.173-12.806-0.173S77.357,104.35,75.8,90.729
	c-3.469-30.38,29.156-16.922,36.067-14.031C114.212,77.679,122.115,85.074,121.013,88.708"/>
<g>
	<path fill="#E2A6BF" d="M69.925,21.4c-0.127,10.879,7.992,19.805,18.131,19.938c10.139,0.134,23.171-3.479,23.299-14.357
		c0.062-5.361-3.05-9.375-7.42-12.986c-4.5-3.712-10.278-11.979-15.421-12.047C78.375,1.814,70.051,10.523,69.925,21.4z"/>
	<path fill="#E2A6BF" d="M90.845,8.724"/>
	<g>
		<path fill="#E2A6BF" d="M86.49,5.318"/>
		<path fill="#E2A6BF" d="M86.46,3.27"/>
	</g>
</g>
<path fill="#E2A6BF" d="M32.656,151.439c-2.181-3.916,7.922-18.395,7.922-18.395S39.956,78.888,57.436,84.91
	c38.999,13.426,2.994,52.379-4.68,60.606C50.149,148.314,36.403,155.238,32.656,151.439"/>
</svg>
